# xmcd
#
# Track frame offsets:
# 150
# 9883
# 24478
# 37814
# 50871
# 63619
# 78397
# 88210
# 101140
# 114113
# 125417
#
# Disc length: 1855 seconds
#
#
# Revision: 0
# Processed by: cddbd v1.5.2PL0 Copyright (c) Steve Scherf et al.
# Submitted via: FreeRIP 2.951 
#
DISCID=86073d0b
DTITLE=Classe Sigvardsson - Ute på vägarna igen
DYEAR=1900
DGENRE=Dansband
TTITLE0=Vägen hem
TTITLE1=För då älskar jag dig
TTITLE2=Bara om du vill
TTITLE3=Gamla polare
TTITLE4=Help me make it through the night
TTITLE5=Låt en morgon vakna
TTITLE6=Love letters in the sand
TTITLE7=Ten guitars
TTITLE8=Release me
TTITLE9=The Wonder of you
TTITLE10=Två solröda segel
EXTD=
EXTT0=
EXTT1=
EXTT2=
EXTT3=
EXTT4=
EXTT5=
EXTT6=
EXTT7=
EXTT8=
EXTT9=
EXTT10=
PLAYORDER=
